<?xml version="1.0" encoding="UTF-8" standalone="no"?>
<svg
   id="Capa_1"
   enable-background="new 0 0 512 512"
   height="512"
   viewBox="0 0 512 512"
   width="512"
   version="1.1"
   sodipodi:docname="icon.svg"
   inkscape:version="1.1 (c68e22c387, 2021-05-23)"
   xmlns:inkscape="http://www.inkscape.org/namespaces/inkscape"
   xmlns:sodipodi="http://sodipodi.sourceforge.net/DTD/sodipodi-0.dtd"
   xmlns="http://www.w3.org/2000/svg"
   xmlns:svg="http://www.w3.org/2000/svg">
  <defs
     id="defs33" />
  <sodipodi:namedview
     id="namedview31"
     pagecolor="#ffffff"
     bordercolor="#666666"
     borderopacity="1.0"
     inkscape:pageshadow="2"
     inkscape:pageopacity="0.0"
     inkscape:pagecheckerboard="0"
     showgrid="false"
     showguides="true"
     inkscape:guide-bbox="true"
     inkscape:zoom="0.82226563"
     inkscape:cx="454.23278"
     inkscape:cy="252.35154"
     inkscape:window-width="1920"
     inkscape:window-height="1009"
     inkscape:window-x="-8"
     inkscape:window-y="-8"
     inkscape:window-maximized="1"
     inkscape:current-layer="g26"
     inkscape:snap-global="false" />
  <g
     id="g28">
    <g
       fill="#00008b"
       id="g26">
      <g
         id="g1047">
        <path
           d="m472 36h-432c-22.056 0-40 17.944-40 40v300c0 22.056 17.944 40 40 40h133.819l-20 40h-13.819c-5.523 0-10 4.477-10 10s4.477 10 10 10h230c5.523 0 10-4.477 10-10s-4.477-10-10-10h-13.82l-20-40h135.82c22.056 0 40-17.944 40-40v-300c0-22.056-17.944-40-40-40zm-295.82 420 20-40h117.64l20 40zm315.82-80c0 11.028-8.972 20-20 20-16.509 0-414.601 0-432 0-11.028 0-20-8.972-20-20v-10h472zm0-30h-472v-270c0-11.028 8.972-20 20-20h432c11.028 0 20 8.972 20 20z"
           id="path16" />
        <g
           id="g868"
           transform="matrix(0.08251252,0,0,0.08251252,268.67094,107.30847)">
          <path
             d="m 2177.5,1535.7 h -830.9 c -13.4,0 -26.4,4.5 -36.9,12.9 l -619.2,492.3 c -16,12.7 -7,38.3 13.5,38.3 h 1483 c 146.6,0 278.4,-131.6 268.1,-289.9 -9.4,-144.4 -132.4,-253.6 -277.6,-253.6"
             fill="#00c9db"
             id="path2"
             style="fill:#000000" />
          <path
             d="m 1505.3,1021.8 c 0,-0.7 -0.1,-1.4 -0.2,-2.2 -4.6,-74.2 -39.5,-146.3 -102.9,-195.8 L 438.2,57.4 C 320.5,-34.6 150.2,-13.9 57.8,103.5 -34.6,221 -14,390.7 103.6,482.7 l 698.9,555.6 -698.9,555.6 C -14,1685.8 -34.6,1855.6 57.8,1973 c 92.4,117.4 262.7,138.1 380.4,46.1 l 964.1,-766.5 c 63.4,-49.5 98.3,-121.6 102.9,-195.8 0.1,-0.7 0.1,-1.4 0.2,-2.2 0.3,-5.5 0.4,-10.9 0.4,-16.4 0,-5.4 -0.2,-10.9 -0.5,-16.4"
             fill="#0d55ff"
             id="path4-1"
             style="fill:#000000" />
          <path
             d="m 2459.5,1807.4 c 0,150.1 -121.9,271.7 -272.5,271.7 -150.4,0 -272.3,-121.7 -272.3,-271.7 0,-150 121.9,-271.7 272.3,-271.7 150.6,0 272.5,121.7 272.5,271.7"
             fill="#7000f2"
             id="path6"
             style="fill:#000000" />
        </g>
        <g
           id="g836"
           transform="matrix(5.1929455,0,0,5.1929455,19.330157,70.57001)">
          <path
             fill="#0277bd"
             d="m 24.047,5 c -1.555,0.005 -2.633,0.142 -3.936,0.367 -3.848,0.67 -4.549,2.077 -4.549,4.67 V 14 h 9 v 2 H 15.22 10.87 c -2.636,0 -4.943,1.242 -5.674,4.219 -0.826,3.417 -0.863,5.557 0,9.125 C 5.851,32.005 7.294,34 9.931,34 h 3.632 V 28.896 C 13.563,25.93 16.249,23 19.327,23 h 7.236 c 2.523,0 5,-1.862 5,-4.377 V 10.037 C 31.563,7.598 29.804,5.774 27.345,5.365 27.406,5.359 25.589,4.994 24.047,5 Z m -4.984,4 c 0.821,0 1.5,0.677 1.5,1.502 0,0.833 -0.679,1.498 -1.5,1.498 -0.837,0 -1.5,-0.664 -1.5,-1.498 C 17.563,9.68 18.226,9 19.063,9 Z"
             id="path2-83" />
          <path
             fill="#ffc107"
             d="m 23.078,43 c 1.555,-0.005 2.633,-0.142 3.936,-0.367 3.848,-0.67 4.549,-2.077 4.549,-4.67 V 34 h -9 v -2 h 9.343 4.35 c 2.636,0 4.943,-1.242 5.674,-4.219 0.826,-3.417 0.863,-5.557 0,-9.125 C 41.274,15.995 39.831,14 37.194,14 h -3.632 v 5.104 C 33.562,22.07 30.876,25 27.798,25 h -7.236 c -2.523,0 -5,1.862 -5,4.377 v 8.586 c 0,2.439 1.759,4.263 4.218,4.672 -0.061,0.006 1.756,0.371 3.298,0.365 z m 4.985,-4 c -0.821,0 -1.5,-0.677 -1.5,-1.502 0,-0.833 0.679,-1.498 1.5,-1.498 0.837,0 1.5,0.664 1.5,1.498 0,0.822 -0.664,1.502 -1.5,1.502 z"
             id="path4-6" />
        </g>
      </g>
    </g>
  </g>
</svg>
